<svg height="512pt" viewBox="0 0 512 512" width="512pt" xmlns="http://www.w3.org/2000/svg"><path d="m342.828125 256.070312h-173.65625c-22.757813 0-41.207031-18.449218-41.207031-41.207031v-173.65625c0-22.757812 18.449218-41.207031 41.207031-41.207031h173.65625c22.757813 0 41.207031 18.449219 41.207031 41.207031v173.65625c0 22.757813-18.449218 41.207031-41.207031 41.207031zm0 0" fill="#f54558"/><path d="m342.828125 0h-30.902344c22.757813 0 41.207031 18.449219 41.207031 41.207031v173.65625c0 22.757813-18.449218 41.207031-41.207031 41.207031h30.902344c22.757813 0 41.207031-18.449218 41.207031-41.207031v-173.65625c0-22.757812-18.449218-41.207031-41.207031-41.207031zm0 0" fill="#e64152"/><path d="m342.828125 317.882812h-173.65625c-22.757813 0-41.207031-18.449218-41.207031-41.207031v-173.65625c0-22.757812 18.449218-41.207031 41.207031-41.207031h173.65625c22.757813 0 41.207031 18.449219 41.207031 41.207031v173.65625c0 22.757813-18.449218 41.207031-41.207031 41.207031zm0 0" fill="#e64152"/><path d="m342.828125 61.8125h-30.902344c22.757813 0 41.207031 18.449219 41.207031 41.207031v173.65625c0 22.757813-18.449218 41.207031-41.207031 41.207031h30.902344c22.757813 0 41.207031-18.449218 41.207031-41.207031v-173.65625c0-22.757812-18.449218-41.207031-41.207031-41.207031zm0 0" fill="#d43b4c"/><path d="m169.171875 286.976562c-5.679687 0-10.304687-4.621093-10.304687-10.300781v-173.65625c0-5.683593 4.625-10.304687 10.304687-10.304687h173.65625c5.679687 0 10.304687 4.621094 10.304687 10.304687v173.65625c0 5.679688-4.625 10.300781-10.304687 10.300781zm0 0" fill="#6d6670"/><path d="m284.6875 196.910156-21.507812-71.113281c-.957032-3.164063-3.875-5.328125-7.179688-5.328125-3.308594 0-6.222656 2.164062-7.179688 5.328125l-21.511718 71.113281c-1.199219 3.964844 1.042968 8.152344 5.007812 9.351563 3.960938 1.199219 8.152344-1.042969 9.351563-5.007813l1.203125-3.980468h26.257812l1.203125 3.980468c.980469 3.242188 3.953125 5.332032 7.175781 5.332032.71875 0 1.449219-.105469 2.171876-.324219 3.964843-1.199219 6.207031-5.386719 5.007812-9.351563zm-37.277344-14.636718 8.589844-28.398438 8.589844 28.398438zm0 0" fill="#e1eaf0"/><path d="m214.863281 450.1875h-173.65625c-22.757812 0-41.207031-18.449219-41.207031-41.207031v-173.65625c0-22.757813 18.449219-41.207031 41.207031-41.207031h173.65625c22.757813 0 41.207031 18.449218 41.207031 41.207031v173.65625c0 22.757812-18.449218 41.207031-41.207031 41.207031zm0 0" fill="#71f6fc"/><path d="m214.863281 194.117188h-30.902343c22.757812 0 41.207031 18.449218 41.207031 41.207031v173.65625c0 22.757812-18.449219 41.207031-41.207031 41.207031h30.902343c22.757813 0 41.207031-18.449219 41.207031-41.207031v-173.65625c0-22.757813-18.449218-41.207031-41.207031-41.207031zm0 0" fill="#3be3eb"/><path d="m470.792969 450.1875h-173.65625c-22.757813 0-41.207031-18.449219-41.207031-41.207031v-173.65625c0-22.757813 18.449218-41.207031 41.207031-41.207031h173.65625c22.757812 0 41.207031 18.449218 41.207031 41.207031v173.65625c0 22.757812-18.449219 41.207031-41.207031 41.207031zm0 0" fill="#ffd659"/><path d="m470.792969 194.117188h-30.90625c22.757812 0 41.207031 18.449218 41.207031 41.207031v173.65625c0 22.757812-18.449219 41.207031-41.207031 41.207031h30.90625c22.757812 0 41.207031-18.449219 41.207031-41.207031v-173.65625c0-22.757813-18.449219-41.207031-41.207031-41.207031zm0 0" fill="#ffbd54"/><path d="m214.863281 512h-173.65625c-22.757812 0-41.207031-18.449219-41.207031-41.207031v-173.65625c0-22.757813 18.449219-41.207031 41.207031-41.207031h173.65625c22.757813 0 41.207031 18.449218 41.207031 41.207031v173.65625c0 22.757812-18.449218 41.207031-41.207031 41.207031zm0 0" fill="#3be3eb"/><path d="m214.863281 255.929688h-30.902343c22.757812 0 41.207031 18.449218 41.207031 41.207031v173.65625c0 22.757812-18.449219 41.207031-41.207031 41.207031h30.902343c22.757813 0 41.207031-18.449219 41.207031-41.207031v-173.65625c0-22.757813-18.449218-41.207031-41.207031-41.207031zm0 0" fill="#2bc3d4"/><path d="m41.207031 481.09375c-5.679687 0-10.300781-4.621094-10.300781-10.300781v-173.65625c0-5.683594 4.621094-10.304688 10.300781-10.304688h173.65625c5.683594 0 10.304688 4.621094 10.304688 10.304688v173.65625c0 5.679687-4.621094 10.300781-10.304688 10.300781zm0 0" fill="#6d6670"/><path d="m470.792969 512h-173.65625c-22.757813 0-41.207031-18.449219-41.207031-41.207031v-173.65625c0-22.757813 18.449218-41.207031 41.207031-41.207031h173.65625c22.757812 0 41.207031 18.449218 41.207031 41.207031v173.65625c0 22.757812-18.449219 41.207031-41.207031 41.207031zm0 0" fill="#ffbd54"/><path d="m470.792969 255.929688h-30.90625c22.757812 0 41.207031 18.449218 41.207031 41.207031v173.65625c0 22.757812-18.449219 41.207031-41.207031 41.207031h30.90625c22.757812 0 41.207031-18.449219 41.207031-41.207031v-173.65625c0-22.757813-18.449219-41.207031-41.207031-41.207031zm0 0" fill="#ffa347"/><path d="m297.136719 481.09375c-5.683594 0-10.304688-4.621094-10.304688-10.300781v-173.65625c0-5.683594 4.621094-10.304688 10.304688-10.304688h173.65625c5.679687 0 10.300781 4.621094 10.300781 10.304688v173.65625c0 5.679687-4.621094 10.300781-10.300781 10.300781zm0 0" fill="#6d6670"/><g fill="#e1eaf0"><path d="m160.773438 355.3125c0-21.175781-17.226563-38.402344-38.402344-38.402344h-13.246094c-13.871094 0-25.160156 11.285156-25.160156 25.160156v88.300782c0 13.871094 11.289062 25.160156 25.160156 25.160156h13.246094c21.175781 0 38.402344-17.230469 38.402344-38.40625 0-12.660156-6.160157-23.90625-15.636719-30.90625 9.476562-7 15.636719-18.246094 15.636719-30.90625zm-15 61.8125c0 12.90625-10.5 23.40625-23.402344 23.40625h-13.246094c-5.601562 0-10.160156-4.558594-10.160156-10.160156v-36.652344h23.40625c12.902344 0 23.402344 10.5 23.402344 23.40625zm-23.402344-38.40625h-23.40625v-36.648438c0-5.605468 4.558594-10.160156 10.160156-10.160156h13.246094c12.902344 0 23.402344 10.5 23.402344 23.40625s-10.5 23.402344-23.402344 23.402344zm0 0"/><path d="m414.867188 354.15625c4.144531 0 7.5-3.359375 7.5-7.5v-3.492188c0-14.476562-11.773438-26.253906-26.253907-26.253906h-22.453125c-15.496094 0-28.101562 12.605469-28.101562 28.101563v82.417969c0 15.496093 12.605468 28.101562 28.101562 28.101562h22.453125c14.480469 0 26.253907-11.777344 26.253907-26.253906 0-4.140625-3.355469-7.5-7.5-7.5-4.140626 0-7.5 3.359375-7.5 7.5 0 6.207031-5.046876 11.253906-11.253907 11.253906h-22.453125c-7.222656 0-13.101562-5.878906-13.101562-13.101562v-82.417969c0-7.222657 5.878906-13.101563 13.101562-13.101563h22.453125c6.207031 0 11.253907 5.046875 11.253907 11.253906v3.492188c0 4.140625 3.359374 7.5 7.5 7.5zm0 0"/></g></svg>