<svg height="464pt" viewBox="0 -16 464 463" width="464pt" xmlns="http://www.w3.org/2000/svg"><path d="m272 96.496094h80v64h-80zm0 0" fill="#e9686a"/><path d="m192 96.496094h80v64h-80zm0 0" fill="#546977"/><path d="m352 96.496094h80v64h-80zm0 0" fill="#546977"/><path d="m112 96.496094h80v64h-80zm0 0" fill="#cfdfe8"/><path d="m32 96.496094h80v64h-80zm0 0" fill="#546977"/><path d="m112 96.496094 25.433594-85.765625c2.214844-6.140625 8.039062-10.230469 14.566406-10.230469s12.351562 4.089844 14.566406 10.230469l25.433594 85.765625zm0 0" fill="#e9686a"/><path d="m192 96.496094 25.433594-85.765625c2.214844-6.140625 8.039062-10.230469 14.566406-10.230469s12.351562 4.089844 14.566406 10.230469l25.433594 85.765625zm0 0" fill="#238892"/><path d="m192 128.496094h80v32h-80zm0 0" fill="#238892"/><path d="m272 96.496094 25.433594-85.765625c2.214844-6.140625 8.039062-10.230469 14.566406-10.230469s12.351562 4.089844 14.566406 10.230469l25.433594 85.765625zm0 0" fill="#546977"/><path d="m272 128.496094h80v32h-80zm0 0" fill="#546977"/><path d="m352 96.496094 25.433594-85.765625c2.214844-6.140625 8.039062-10.230469 14.566406-10.230469s12.351562 4.089844 14.566406 10.230469l25.433594 85.765625zm0 0" fill="#cfdfe8"/><path d="m352 128.496094h80v32h-80zm0 0" fill="#cfdfe8"/><path d="m32 96.496094 25.433594-85.765625c2.214844-6.140625 8.039062-10.230469 14.566406-10.230469s12.351562 4.089844 14.566406 10.230469l25.433594 85.765625zm0 0" fill="#fdbd40"/><path d="m112 128.496094h80v32h-80zm0 0" fill="#e9686a"/><path d="m32 128.496094h80v32h-80zm0 0" fill="#fdbd40"/><path d="m0 160.496094h464v272h-464zm0 0" fill="#d3843d"/><g fill="#cfdfe8"><path d="m64 208.496094h336v160h-336zm0 0"/><path d="m376 392.496094h32v16h-32zm0 0"/><path d="m296 392.496094h64v16h-64zm0 0"/></g></svg>