<svg height="512pt" viewBox="0 0 512 512.00002" width="512pt" xmlns="http://www.w3.org/2000/svg"><path d="m459.03125 396v116h-406.0625v-116c0-71.179688 56.742188-129.089844 127.460938-130.980469 1.179687-.03125 2.378906-.050781 3.570312-.050781h144c1.191406 0 2.390625.019531 3.570312.050781 70.71875 1.890625 127.460938 59.800781 127.460938 130.980469zm0 0" fill="#ffd9a7"/><path d="m459.03125 396v116h-203.03125v-247.03125h72c72.371094 0 131.03125 58.660156 131.03125 131.03125zm0 0" fill="#ffc273"/><path d="m459.03125 396v32.921875h-99.019531v83.078125h-208.023438v-83.078125h-99.019531v-32.921875c0-49.738281 27.710938-93 68.53125-115.191406 9.371094-5.089844 19.429688-9.078125 30-11.769532 6.730469-1.71875 13.671875-2.917968 20.769531-3.550781 3.859375-.347656 7.78125-.519531 11.730469-.519531h144c3.949219 0 7.871094.179688 11.730469.519531 66.878906 5.933594 119.300781 62.089844 119.300781 130.511719zm0 0" fill="#0086ff"/><path d="m459.03125 396v32.921875h-99.019531v83.078125h-104.011719v-247.03125h72c11.128906 0 21.941406 1.390625 32.25 4.011719 10.570312 2.667969 20.628906 6.628906 30 11.699219 40.960938 22.140624 68.78125 65.480468 68.78125 115.320312zm0 0" fill="#4b5be3"/><path d="m339.730469 265.488281-83.730469 122.671875-83.730469-122.671875c3.859375-.347656 7.78125-.519531 11.730469-.519531h144c3.949219 0 7.871094.179688 11.730469.519531zm0 0" fill="#ffc273"/><path d="m339.730469 265.488281-83.730469 122.671875v-123.191406h72c3.949219 0 7.871094.179688 11.730469.519531zm0 0" fill="#ffb64f"/><path d="m406.800781 179.28125c0 21.027344-14.179687 38.820312-33.472656 44.296875-5.078125 24.761719-17.90625 47.363281-36.859375 64.570313-22.070312 20.03125-50.648438 31.0625-80.46875 31.0625s-58.398438-11.03125-80.46875-31.0625c-18.953125-17.207032-31.78125-39.808594-36.859375-64.570313-19.292969-5.476563-33.472656-23.269531-33.472656-44.296875 0-18.832031 11.371093-35.0625 27.609375-42.171875 1.121094-.5 2.261718-.949219 3.429687-1.347656v-16c0-66.03125 53.722657-119.761719 119.761719-119.761719s119.761719 53.730469 119.761719 119.761719v16c1.128906.386719 2.238281.816406 3.316406 1.296875 16.300781 7.089844 27.722656 23.351562 27.722656 42.222656zm0 0" fill="#ffd9a7"/><path d="m406.800781 179.28125c0 21.027344-14.179687 38.820312-33.472656 44.296875-5.078125 24.761719-17.90625 47.363281-36.859375 64.570313-22.070312 20.03125-50.648438 31.0625-80.46875 31.0625v-319.210938c66.039062 0 119.761719 53.730469 119.761719 119.761719v16c18.046875 6.226562 31.039062 23.386719 31.039062 43.519531zm0 0" fill="#ffc273"/><path d="m379.078125 137.058594c-19.738281-.789063-40.578125-10.898438-61.976563-30.058594-6.390624-5.71875-11.882812-11.429688-16.179687-16.230469-9.390625 6.96875-24.101563 16.179688-44.921875 24.550781-28.738281 11.550782-69.121094 21.5-123.191406 21.789063 1.121094-.5 2.261718-.949219 3.429687-1.347656v-16c0-66.03125 53.722657-119.761719 119.761719-119.761719s119.761719 53.730469 119.761719 119.761719v16c1.128906.386719 2.238281.816406 3.316406 1.296875zm0 0" fill="#886746"/><path d="m379.078125 137.058594c-19.738281-.789063-40.578125-10.898438-61.976563-30.058594-6.390624-5.71875-11.882812-11.429688-16.179687-16.230469-9.390625 6.96875-24.101563 16.179688-44.921875 24.550781v-115.320312c66.039062 0 119.761719 53.730469 119.761719 119.761719v16c1.128906.386719 2.238281.816406 3.316406 1.296875zm0 0" fill="#644b31"/><path d="m0 406.667969h34.894531v30h-34.894531zm0 0" fill="#57555c"/><path d="m477.105469 406.667969h34.894531v30h-34.894531zm0 0" fill="#2a2a2c"/><path d="m101.046875 406.667969h309.90625v30h-309.90625zm0 0" fill="#dfe3f8"/><path d="m256 406.667969h154.953125v30h-154.953125zm0 0" fill="#c3c9f6"/><path d="m19.894531 331.332031h96.152344v180.667969h-96.152344zm0 0" fill="#adacb2"/><path d="m395.953125 331.332031h96.152344v180.667969h-96.152344zm0 0" fill="#8a8891"/></svg>