<?xml version="1.0" encoding="iso-8859-1"?>
<!-- Generator: Adobe Illustrator 19.0.0, SVG Export Plug-In . SVG Version: 6.00 Build 0)  -->
<svg version="1.1" id="Capa_1" xmlns="http://www.w3.org/2000/svg" xmlns:xlink="http://www.w3.org/1999/xlink" x="0px" y="0px"
	 viewBox="0 0 512 512" style="enable-background:new 0 0 512 512;" xml:space="preserve">
<path style="fill:#FEA832;" d="M166,180C74.801,180,0,254.799,0,346c0,91.199,74.801,166,166,166s165-74.801,165-166
	C331,254.799,257.199,180,166,180z M166,452c-57.9,0-106-48.1-106-106s48.1-106,106-106s105,48.1,105,106S223.9,452,166,452z"/>
<path style="fill:#FE9923;" d="M331,346c0,91.199-73.801,166-165,166v-60c57.9,0,105-48.1,105-106s-47.1-106-105-106v-60
	C257.199,180,331,254.799,331,346z"/>
<path style="fill:#FF4B00;" d="M293.2,0c-16.5,0-28.799,7.5-37.2,17.1C247.599,7.5,235.3,0,218.8,0c-29.399,0-52.2,24.3-52.2,55.499
	c0,32.401,25.199,54.001,60.3,83.401c5.999,5.099,12.599,10.499,19.199,16.5c3.001,2.401,6.301,3.6,9.901,3.6
	c3.6,0,6.899-1.199,9.901-3.6c6.599-6,13.2-11.4,19.199-16.5c10.501-9,20.101-16.8,28.2-24.6c16.501-15.601,32.1-33.9,32.1-58.801
	C345.399,24.3,322.599,0,293.2,0z"/>
<path style="fill:#E61E14;" d="M345.399,55.499c0,24.901-15.599,43.2-32.1,58.801c-8.099,7.8-17.699,15.601-28.2,24.6
	c-5.999,5.099-12.599,10.499-19.199,16.5c-3.001,2.4-6.3,3.6-9.9,3.6V17.1C264.401,7.5,276.7,0,293.2,0
	C322.599,0,345.399,24.3,345.399,55.499z"/>
<path style="fill:#FEDB41;" d="M346,180c-91.199,0-165,74.799-165,166c0,91.199,73.801,166,165,166s166-74.801,166-166
	C512,254.799,437.199,180,346,180z M346,452c-57.9,0-105-48.1-105-106s47.1-106,105-106s106,48.1,106,106S403.9,452,346,452z"/>
<path style="fill:#FCBF29;" d="M512,346c0,91.199-74.801,166-166,166v-60c57.9,0,106-48.1,106-106s-48.1-106-106-106v-60
	C437.199,180,512,254.799,512,346z"/>
<g>
</g>
<g>
</g>
<g>
</g>
<g>
</g>
<g>
</g>
<g>
</g>
<g>
</g>
<g>
</g>
<g>
</g>
<g>
</g>
<g>
</g>
<g>
</g>
<g>
</g>
<g>
</g>
<g>
</g>
</svg>
